<svg id="レイヤー_1" data-name="レイヤー 1" xmlns="http://www.w3.org/2000/svg" viewBox="0 0 992.9 133.23"><defs><style>.cls-1{fill:#fff}</style></defs><title>smallCloud</title><path class="cls-1" d="M992.13 0H0v20.3c0 1.28.05 2.55.14 3.81H0V102c19.16 0 35-14.32 37.84-33a48.59 48.59 0 0 0 19.45.64 48.73 48.73 0 0 0 37.77 18 48.27 48.27 0 0 0 19-3.9 36.65 36.65 0 0 0 68.29 6.48A48.2 48.2 0 0 0 198.67 93a48.73 48.73 0 0 0 37.59-17.8 36.59 36.59 0 0 0 41.41 22.28c6 20.67 24.85 35.75 47.13 35.75a49.19 49.19 0 0 0 45.72-31.6 36.22 36.22 0 0 0 20.54 6.37c20.36 0 36.87-16.79 36.87-37.49a37.93 37.93 0 0 0-.3-4.68A48.52 48.52 0 0 0 474 61.55a24.4 24.4 0 0 0 44.16 0 48.54 48.54 0 0 0 46.36 4.27 37.93 37.93 0 0 0-.3 4.68c0 20.7 16.51 37.49 36.87 37.49a36.16 36.16 0 0 0 20.53-6.36 48.91 48.91 0 0 0 92.85-4.15 36.59 36.59 0 0 0 41.39-22.28 48.77 48.77 0 0 0 37.6 17.8 48.24 48.24 0 0 0 16.27-2.81A36.65 36.65 0 0 0 878 83.7a48.24 48.24 0 0 0 19.05 3.9 48.73 48.73 0 0 0 37.77-18 48.59 48.59 0 0 0 19.47-.6 38.5 38.5 0 0 0 37.84 33V24.1H992c.09-1.26.14-2.53.14-3.81z"/></svg>