<svg id="レイヤー_1" data-name="レイヤー 1" xmlns="http://www.w3.org/2000/svg" viewBox="0 0 113.39 117.92"><defs><style>.cls-1{fill:#fff;}</style></defs><title>shapeBaloon</title><path class="cls-1" d="M26.31,73.17S17.66,98.93,20.64,107a7.19,7.19,0,0,0,6,4.38c8.57.33,30.3-16.06,30.3-16.06s21.85,16.24,30.41,15.85a7.22,7.22,0,0,0,6-4.42c2.92-8-5.91-33.75-5.91-33.75s22-15.62,24.24-23.8a7.49,7.49,0,0,0-2.47-7.35c-6.7-5.19-33.58-4.75-33.58-4.75s-9.14-24.13-15-30.17c-2.12-2.18-4.88-2.18-8,0-6.85,4.9-14.81,30.27-14.81,30.27s-26.87-.25-33.54,5A7.49,7.49,0,0,0,1.9,49.54C4.22,57.71,26.31,73.17,26.31,73.17Z"/></svg>