<svg id="レイヤー_1" data-name="レイヤー 1" xmlns="http://www.w3.org/2000/svg" viewBox="0 0 107.23 218.19"><defs><style>.cls-1{fill:#373838;}.cls-2{fill:#fff;}</style></defs><title>FUSEN</title><path class="cls-1" d="M107.58,53.47a53.81,53.81,0,1,0-56.46,53.74,100.57,100.57,0,0,0-3,26.58c.45,14,6,21.61,10.84,28.3,4,5.51,7.48,10.27,7.48,17.71,0,8.79-3.52,15-6.93,21-3.12,5.52-6.07,10.73-6.07,17.39h3c0-5.87,2.76-10.75,5.68-15.91,3.43-6.06,7.32-12.93,7.32-22.51,0-8.41-3.91-13.79-8.05-19.47-4.84-6.65-9.85-13.53-10.28-26.64a99.6,99.6,0,0,1,3.12-26.42A53.8,53.8,0,0,0,107.58,53.47Z"/><path class="cls-2" d="M41.53,55.51c-1.44-.94-2.78-2.28-4.33-3.47A1.05,1.05,0,0,0,35.74,52a10.05,10.05,0,0,1-2,1.44.66.66,0,1,1-.46-1.23A12,12,0,0,0,35.12,51a2.14,2.14,0,0,1,2.72.09c1,.71,3.3,2.47,4.57,3.3a.63.63,0,0,1,.12.92A.77.77,0,0,1,41.53,55.51ZM40,51.33A1.29,1.29,0,0,1,38.65,50,1.31,1.31,0,1,1,40,51.33Zm0-1.93a.64.64,0,0,0-.64.64.64.64,0,0,0,.64.63.63.63,0,0,0,.63-.63A.64.64,0,0,0,40,49.4Z"/><path class="cls-2" d="M45.28,52.63a.58.58,0,0,1-.64-.58.61.61,0,0,1,.64-.61h7.53a.6.6,0,1,1,0,1.19Z"/><path class="cls-2" d="M58.26,53a4.42,4.42,0,0,0-1.48-.61c-.72-.12-.5-1.26.38-1.09a6.16,6.16,0,0,1,1.75.6.66.66,0,0,1,.28.9A.62.62,0,0,1,58.26,53Zm0,3.77a.66.66,0,1,1-.39-1.24c2.38-.64,5.05-3.28,6.31-5.67.39-.74,1.59-.25,1.06.7A13.79,13.79,0,0,1,58.26,56.79Zm1.39-5.9a4.24,4.24,0,0,0-1.3-.92c-.69-.28-.21-1.35.61-1a6.34,6.34,0,0,1,1.59,1,.63.63,0,0,1,.06.93A.64.64,0,0,1,59.65,50.89Zm2.61-2.18c-.61-.26-.14-1,.42-.77a3.64,3.64,0,0,1,1.18.72c.47.5-.22,1.23-.62.77A3.88,3.88,0,0,0,62.26,48.71Zm1.09-1c-.61-.24-.18-1,.38-.79a3.48,3.48,0,0,1,1.21.68c.48.48-.19,1.23-.6.78A4,4,0,0,0,63.35,47.69Z"/><path class="cls-2" d="M72.79,50.41a9.47,9.47,0,0,1-2.42,4.86c-.92.85-1.93.38-2.46-.65-.75-1.49,0-3.72,1.66-4.83a5,5,0,0,1,5.18-.28,3.54,3.54,0,0,1,1.11,5,5.06,5.06,0,0,1-2.92,2c-1.06.27-1.43-.94-.4-1.18A3.7,3.7,0,0,0,74.77,54a2.59,2.59,0,0,0-.66-3.67,3,3,0,0,0-1.48-.48A.59.59,0,0,1,72.79,50.41Zm-2.66.23C69,51.5,68.42,53.1,68.92,54c.18.35.49.53.79.26a7.2,7.2,0,0,0,1.86-4,.81.81,0,0,1,.11-.37A4,4,0,0,0,70.13,50.64Z"/><path class="cls-2" d="M37.21,75.44a.65.65,0,1,1-1.29,0c.08-1.94.12-6.64.07-8.37a.63.63,0,0,1,1.25,0c0,.59,0,1.63,0,2.81h.21a7.4,7.4,0,0,1,2.87,1c.63.53-.06,1.57-.74,1.07a7.53,7.53,0,0,0-2.34-1C37.19,72.74,37.19,74.47,37.21,75.44Z"/><path class="cls-2" d="M46.92,72.6a2.9,2.9,0,0,0-.68-.92c-.49-.42.2-1.18.77-.68a4.57,4.57,0,0,1,.88,1.07A.55.55,0,1,1,46.92,72.6Zm-.24,3.25a.54.54,0,0,1,.3-.72,6.41,6.41,0,0,0,3.78-4.53.59.59,0,1,1,1.13.31,7.85,7.85,0,0,1-4.38,5.17A.58.58,0,0,1,46.68,75.85Zm1.85-3.91a3.41,3.41,0,0,0-.56-1c-.44-.48.37-1.14.86-.55a5.1,5.1,0,0,1,.72,1.19A.54.54,0,1,1,48.53,71.94Z"/><path class="cls-2" d="M57.8,74.6a7.42,7.42,0,0,0,4.76-4.78c.09-.33.06-.63-.39-.64-1.17,0-3.07,0-4.79.1a.6.6,0,1,1,0-1.19C58.93,68,61.18,68,62.7,68A1.26,1.26,0,0,1,64,69.76a9.21,9.21,0,0,1-5.66,6C57.33,76.15,56.88,74.89,57.8,74.6Zm7.12-6.29a1.27,1.27,0,1,1,1.27-1.26A1.26,1.26,0,0,1,64.92,68.31Zm0-1.89a.62.62,0,0,0-.61.63.61.61,0,0,0,1.22,0A.62.62,0,0,0,64.92,66.42Z"/><path class="cls-2" d="M68.58,75.36c-1-2.37,0-5.91.21-7.34a.58.58,0,1,1,1.16.07c-.19,1-.91,3.79-.62,4.9,0,.16.08.13.13,0s.16-.3.2-.39a.48.48,0,0,1,.84.47,6,6,0,0,0-.7,1.68c-.08.32.07.7-.23,1S68.82,76,68.58,75.36Zm3.22-.85a.59.59,0,0,1,.85-.83c.65.59,2.09.39,3,.2s1,1.07.24,1.27C74.63,75.48,72.66,75.44,71.8,74.51Zm.68-4.79a.56.56,0,1,1-.17-1.11,7.24,7.24,0,0,1,3.16-.08.59.59,0,1,1-.21,1.15A6.23,6.23,0,0,0,72.48,69.72Z"/><path class="cls-2" d="M42.66,92.85c.07,1.71,2,1.64,2.57.31a2.09,2.09,0,0,0-.59-2.42c-.62-.69.41-1.32.94-.71a3.25,3.25,0,0,1,.81,3.43c-.86,2.28-4.69,2.67-4.78-.53,0-.33,0-.69,0-1.07a5.29,5.29,0,0,1-.92-.14c-1-.26-.6-1.4.08-1.18a3.75,3.75,0,0,0,.92.18c0-.52.11-1,.17-1.59a5.05,5.05,0,0,1-1-.21.59.59,0,1,1,.25-1.15A3,3,0,0,0,42,88c0-.14,0-.3,0-.44.07-.76.09-1.21.13-1.78.06-.84,1.2-.64,1.2.06a15.89,15.89,0,0,1-.2,1.73c0,.14,0,.29-.05.43a1.45,1.45,0,0,0,.3-.06A.56.56,0,1,1,43.69,89a3.59,3.59,0,0,1-.73.12q-.1.81-.18,1.56a3.32,3.32,0,0,0,.58-.11.57.57,0,1,1,.38,1.08,4.42,4.42,0,0,1-1.07.2C42.65,92.22,42.65,92.55,42.66,92.85Z"/><path class="cls-2" d="M52.35,87.07c-.63-.77.55-1.42,1-.74a12.62,12.62,0,0,1,1.4,2.8,21.88,21.88,0,0,1,2.11-1.32c.82-.46,1.44.7.52,1.16A18.27,18.27,0,0,0,54,91.1c-1.18,1-1.22,1.9-.29,2.36A5.3,5.3,0,0,0,57,93.3c1-.38,1.37,1,.3,1.3a6.84,6.84,0,0,1-4.14-.1c-1.73-.87-1.65-2.82.29-4.36a4.29,4.29,0,0,1,.35-.28A9.92,9.92,0,0,0,52.35,87.07Zm6,.52a4.12,4.12,0,0,0-.89-.82c-.57-.33,0-1,.51-.71a3.83,3.83,0,0,1,1.09.86C59.44,87.47,58.66,88.11,58.32,87.59Zm1.22-.92a4,4,0,0,0-.91-.78c-.59-.31-.06-1,.48-.73a3.84,3.84,0,0,1,1.12.83C60.65,86.53,59.89,87.17,59.54,86.67Z"/><path class="cls-2" d="M68.06,93.31a1.5,1.5,0,0,0,.16-2.37,3.17,3.17,0,0,0-3.13.2,2.78,2.78,0,0,0-1,.9c-.43.64-1.63-.07-.88-.8a42.9,42.9,0,0,0,3.62-3.87c.13-.17,0-.12-.09-.08a9.76,9.76,0,0,1-2,.62c-.95.2-1.13-1-.31-1.08a20.07,20.07,0,0,0,2.64-.59c1-.28,1.75.57,1.15,1.25-.39.43-.87.9-1.35,1.34s-1,.87-1.39,1.29a3.68,3.68,0,0,1,3.37,0c1.73,1,1.17,3.14-.09,4a4,4,0,0,1-4,.3,1.25,1.25,0,0,1,.7-2.36,1.71,1.71,0,0,1,1.9,1.62A1.51,1.51,0,0,0,68.06,93.31ZM65.51,93c-.53,0-.55.54-.17.75a2.25,2.25,0,0,0,1,.18C66.36,93.33,66,92.91,65.51,93Z"/><path class="cls-2" d="M87.2,24.5c-10.21-8-19.91-13.84-32.82-15a4.45,4.45,0,0,0-1.21,0c-12.92,1.2-22.61,7-32.83,15-1.33.92-1,3,.56,3H39v9.46a2.59,2.59,0,0,0,2.6,2.6H65.94a2.6,2.6,0,0,0,2.61-2.6V27.46h18.1C88.25,27.46,88.53,25.42,87.2,24.5Z"/></svg>