<svg id="レイヤー_1" data-name="レイヤー 1" xmlns="http://www.w3.org/2000/svg" viewBox="0 0 1133.86 453.54"><defs><style>.cls-1{fill:#fff;}</style></defs><title>cloud</title><path class="cls-1" d="M1133.86,201.7V-.69H0V201.7q0,4.28.32,8.47H0V383.31c43.79,0,80.07-31.84,86.48-73.4A114,114,0,0,0,131,311.35a113.34,113.34,0,0,0,129.88,31.36,84.58,84.58,0,0,0,156.08,14.4A113.27,113.27,0,0,0,540,323.79,84.3,84.3,0,0,0,617.8,375a85.47,85.47,0,0,0,16.89-1.68c13.78,46,56.79,79.5,107.71,79.5a112.39,112.39,0,0,0,104.51-70.26,84.49,84.49,0,0,0,46.94,14.13c46.54,0,84.27-37.33,84.27-83.38a83.11,83.11,0,0,0-.68-10.41,113.53,113.53,0,0,0,106-9.5,56.23,56.23,0,0,0,50.47,31.16V213.41l-.75,0a108.15,108.15,0,0,0,.73-11.73Z"/></svg>